<svg width="75" height="75" viewBox="0 0 75 75" fill="none" xmlns="http://www.w3.org/2000/svg">
<g clip-path="url(#clip0_1_2)">
<rect width="75" height="75" rx="14" fill="#EDC22E"/>
<path d="M33.218 35H11.7375C11.9836 32.8789 12.7277 30.8867 13.9699 29.0234C15.2238 27.1484 17.5676 24.9395 21.0012 22.3965C23.0988 20.8379 24.4406 19.6543 25.0266 18.8457C25.6125 18.0371 25.9055 17.2695 25.9055 16.543C25.9055 15.7578 25.6125 15.0898 25.0266 14.5391C24.4523 13.9766 23.7258 13.6953 22.8469 13.6953C21.9328 13.6953 21.1828 13.9824 20.5969 14.5566C20.0227 15.1309 19.6359 16.1445 19.4367 17.5977L12.2648 17.0176C12.5461 15.002 13.0617 13.4316 13.8117 12.3066C14.5617 11.1699 15.6164 10.3027 16.9758 9.70508C18.3469 9.0957 20.2395 8.79102 22.6535 8.79102C25.173 8.79102 27.1301 9.07812 28.5246 9.65234C29.9309 10.2266 31.0324 11.1113 31.8293 12.3066C32.6379 13.4902 33.0422 14.8203 33.0422 16.2969C33.0422 17.8672 32.5793 19.3672 31.6535 20.7969C30.7395 22.2266 29.0695 23.7969 26.6437 25.5078C25.2023 26.5039 24.2355 27.2012 23.7434 27.5996C23.2629 27.998 22.6945 28.5195 22.0383 29.1641H33.218V35ZM41.6766 22.0098C41.6766 17.1113 42.5555 13.6836 44.3133 11.7266C46.0828 9.76953 48.7723 8.79102 52.3816 8.79102C54.116 8.79102 55.5398 9.00781 56.6531 9.44141C57.7664 9.86328 58.6746 10.4199 59.3777 11.1113C60.0809 11.791 60.6316 12.5117 61.0301 13.2734C61.4402 14.0234 61.7684 14.9023 62.0145 15.9102C62.4949 17.832 62.7352 19.8359 62.7352 21.9219C62.7352 26.5977 61.9441 30.0195 60.3621 32.1875C58.7801 34.3555 56.0555 35.4395 52.1883 35.4395C50.0203 35.4395 48.2684 35.0938 46.9324 34.4023C45.5965 33.7109 44.5008 32.6973 43.6453 31.3613C43.0242 30.4121 42.5379 29.1172 42.1863 27.4766C41.8465 25.8242 41.6766 24.002 41.6766 22.0098ZM48.7781 22.0273C48.7781 25.3086 49.0652 27.5527 49.6395 28.7598C50.2254 29.9551 51.0691 30.5527 52.1707 30.5527C52.8973 30.5527 53.5242 30.3008 54.0516 29.7969C54.5906 29.2812 54.9832 28.4727 55.2293 27.3711C55.4871 26.2695 55.616 24.5527 55.616 22.2207C55.616 18.7988 55.323 16.502 54.7371 15.3301C54.1629 14.1465 53.2957 13.5547 52.1355 13.5547C50.952 13.5547 50.0965 14.1582 49.5691 15.3652C49.0418 16.5605 48.7781 18.7812 48.7781 22.0273ZM24.5695 62.1836H11.5266V56.2949L24.5695 40.791H30.8098V56.6289H34.0441V62.1836H30.8098V67H24.5695V62.1836ZM24.5695 56.6289V48.5254L17.6789 56.6289H24.5695ZM45.9832 53.1484C44.8582 52.5508 44.0379 51.8828 43.5223 51.1445C42.8191 50.1367 42.4676 48.9766 42.4676 47.6641C42.4676 45.5078 43.4812 43.7441 45.5086 42.373C47.0906 41.3184 49.1824 40.791 51.784 40.791C55.2293 40.791 57.7723 41.4473 59.4129 42.7598C61.0652 44.0723 61.8914 45.7246 61.8914 47.7168C61.8914 48.877 61.5633 49.9609 60.907 50.9688C60.4148 51.7188 59.6414 52.4453 58.5867 53.1484C59.9812 53.8164 61.0184 54.7012 61.698 55.8027C62.3895 56.9043 62.7352 58.123 62.7352 59.459C62.7352 60.748 62.4363 61.9551 61.8387 63.0801C61.2527 64.1934 60.5262 65.0547 59.659 65.6641C58.8035 66.2734 57.7312 66.7188 56.4422 67C55.1648 67.293 53.7996 67.4395 52.3465 67.4395C49.616 67.4395 47.5301 67.1172 46.0887 66.4727C44.6473 65.8281 43.5516 64.8789 42.8016 63.625C42.0516 62.3711 41.6766 60.9707 41.6766 59.4238C41.6766 57.9121 42.0281 56.6348 42.7312 55.5918C43.4344 54.5371 44.5184 53.7227 45.9832 53.1484ZM49.2 48.0859C49.2 48.9766 49.4754 49.6973 50.0262 50.248C50.5887 50.7871 51.3328 51.0566 52.2586 51.0566C53.0789 51.0566 53.7527 50.7871 54.2801 50.248C54.8074 49.709 55.0711 49.0117 55.0711 48.1562C55.0711 47.2656 54.7957 46.5449 54.2449 45.9941C53.6941 45.4316 52.991 45.1504 52.1355 45.1504C51.2684 45.1504 50.5594 45.4258 50.0086 45.9766C49.4695 46.5156 49.2 47.2188 49.2 48.0859ZM48.8133 59.1777C48.8133 60.3145 49.159 61.2461 49.8504 61.9727C50.5418 62.6875 51.3328 63.0449 52.2234 63.0449C53.0789 63.0449 53.8465 62.6816 54.5262 61.9551C55.2059 61.2168 55.5457 60.2852 55.5457 59.1602C55.5457 58.0234 55.2 57.0918 54.5086 56.3652C53.8289 55.6387 53.0379 55.2754 52.1355 55.2754C51.2449 55.2754 50.4656 55.627 49.7977 56.3301C49.1414 57.0332 48.8133 57.9824 48.8133 59.1777Z" fill="black"/>
</g>
<defs>
<clipPath id="clip0_1_2">
<rect width="75" height="75" fill="white"/>
</clipPath>
</defs>
</svg>
